<?xml version="1.0" standalone="no"?>
<!DOCTYPE svg PUBLIC "-//W3C//DTD SVG 20010904//EN"
 "http://www.w3.org/TR/2001/REC-SVG-20010904/DTD/svg10.dtd">
<svg version="1.0" xmlns="http://www.w3.org/2000/svg"
 width="260.000000pt" height="260.000000pt" viewBox="0 0 260.000000 260.000000"
 preserveAspectRatio="xMidYMid meet">
<metadata>
Created by potrace 1.11, written by Peter Selinger 2001-2013
</metadata>
<g transform="translate(0.000000,260.000000) scale(0.100000,-0.100000)"
fill="#000000" stroke="none">
<path d="M953 2268 c-1 -134 -2 -252 -2 -264 -1 -19 -6 -20 -81 -19 l-80 2 -1
-59 c0 -32 0 -87 0 -123 0 -36 0 -82 0 -104 l1 -38 43 1 42 1 1 -62 c2 -81 7
-95 39 -89 13 3 28 0 31 -6 4 -6 8 -195 9 -422 2 -226 6 -424 9 -441 4 -16 11
-54 17 -83 14 -70 34 -117 73 -172 18 -25 42 -66 54 -91 43 -89 120 -161 203
-188 35 -11 47 -14 114 -27 37 -7 193 -7 255 1 129 15 138 17 142 33 2 9 4 96
3 192 l0 175 -45 0 -45 0 0 75 0 75 -82 -3 c-132 -6 -118 -55 -116 415 1 225
2 422 2 438 l1 30 123 0 122 0 1 155 c1 90 -3 158 -9 161 -5 4 -25 5 -43 3
-37 -3 -36 -6 -36 81 1 71 0 72 -83 70 l-75 -2 -1 46 c-1 25 -1 110 0 189 l0
142 -47 0 -47 0 2 75 2 75 -248 0 -248 0 0 -242z"/>
</g>
</svg>
