<?xml version="1.0" standalone="no"?>
<!DOCTYPE svg PUBLIC "-//W3C//DTD SVG 20010904//EN"
 "http://www.w3.org/TR/2001/REC-SVG-20010904/DTD/svg10.dtd">
<svg version="1.0" xmlns="http://www.w3.org/2000/svg"
 width="150.000000pt" height="150.000000pt" viewBox="0 0 150.000000 150.000000"
 preserveAspectRatio="xMidYMid meet">
<metadata>
Created by potrace 1.11, written by Peter Selinger 2001-2013
</metadata>
<g transform="translate(0.000000,150.000000) scale(0.100000,-0.100000)"
fill="#000000" stroke="none">
<path d="M0 750 l0 -750 750 0 750 0 0 750 0 750 -750 0 -750 0 0 -750z m820
445 l0 -115 55 0 55 0 0 -80 0 -80 -55 0 -55 0 0 -209 c0 -243 1 -248 77 -236
l43 6 0 -89 c0 -85 -1 -90 -22 -96 -36 -9 -160 -7 -200 4 -44 13 -93 66 -107
117 -6 22 -11 139 -11 271 l0 232 -35 0 -35 0 0 80 0 80 35 0 35 0 0 115 0
115 110 0 110 0 0 -115z"/>
</g>
</svg>
