<?xml version="1.0" standalone="no"?>
<!DOCTYPE svg PUBLIC "-//W3C//DTD SVG 20010904//EN"
 "http://www.w3.org/TR/2001/REC-SVG-20010904/DTD/svg10.dtd">
<svg version="1.0" xmlns="http://www.w3.org/2000/svg"
 width="144.000000pt" height="144.000000pt" viewBox="0 0 144.000000 144.000000"
 preserveAspectRatio="xMidYMid meet">
<metadata>
Created by potrace 1.11, written by Peter Selinger 2001-2013
</metadata>
<g transform="translate(0.000000,144.000000) scale(0.100000,-0.100000)"
fill="#000000" stroke="none">
<path d="M537 1292 c-7 -9 -12 -49 -12 -105 l0 -91 -33 -8 c-20 -5 -32 -15
-33 -26 -8 -197 0 -238 45 -230 21 4 21 3 20 -211 0 -119 2 -220 5 -226 3 -5
7 -19 8 -30 5 -27 31 -66 61 -90 14 -11 42 -37 62 -58 52 -55 94 -67 227 -63
72 2 118 8 128 16 12 10 15 36 15 124 0 121 -6 136 -51 136 -23 0 -26 4 -24
29 1 19 -3 32 -12 35 -8 3 -11 10 -8 16 3 5 0 7 -8 4 -11 -4 -14 18 -14 121
l1 125 42 0 c57 0 64 15 64 132 0 102 -7 118 -50 118 -23 0 -27 4 -25 28 1 15
-6 32 -14 39 -11 7 -16 28 -17 61 -1 57 -20 90 -51 87 -18 -1 -23 4 -23 24 0
53 -8 56 -155 57 -107 0 -138 -3 -148 -14z"/>
</g>
</svg>
